#!OML:ASF I:\Actors\actors\Patient Classification 2\Patient 1\Session 1\actor1.ASF
:FULLY-SPECIFIED
:DEGREES
101
root -0.729338 18.7126 5.76894 2.77895 -2.05909 -0.939377
lowerback 0.657064 -0.101808 -1.79154
upperback -2.26873 -0.165294 0.341393
thorax -2.69047 -0.0399227 1.35941
lowerneck -12.4726 -0.765122 -0.959701
upperneck 24.5051 -1.75306 3.40659
head 9.86323 -0.520767 1.14058
rclavicle -1.22936e-014 1.11319e-014
rhumerus -45.1795 -2.91059 -87.685
rradius 38.4216
rwrist 21.5708
rhand -7.45009 -29.2609
rfingers 7.12502
rthumb 18.4379 -58.4071
lclavicle -1.22936e-014 1.11319e-014
lhumerus -41.8823 4.24931 89.5897
lradius 37.0562
lwrist -7.19339
lhand -3.7003 -23.2554
lfingers 7.12502
lthumb 22.0417 5.5085
rfemur 5.30509 2.61825 14.9641
rtibia 1.11319e-014
rfoot -17.1632 -10.2835
rtoes -1.93897
lfemur -5.22121 -7.50624 -13.2459
ltibia 20.0972
lfoot -22.5649 15.0195
ltoes -55.4443
102
root -0.729499 18.7122 5.76791 2.7544 -2.03391 -0.928207
lowerback 0.696339 -0.104843 -1.79261
upperback -2.26238 -0.170329 0.32995
thorax -2.7059 -0.0424413 1.34851
lowerneck -12.4252 -0.764987 -0.980021
upperneck 24.4507 -1.75722 3.4492
head 9.83536 -0.520704 1.15804
rclavicle -6.70277e-015 6.16232e-015
rhumerus -45.2 -2.91511 -87.6886
rradius 38.4343
rwrist 21.5455
rhand -7.41728 -29.4081
rfingers 7.12502
rthumb 18.4695 -58.5513
lclavicle -6.70277e-015 6.16232e-015
lhumerus -41.8636 4.26446 89.5731
lradius 37.0014
lwrist -7.27969
lhand -3.75624 -23.3166
lfingers 7.12502
lthumb 21.988 5.45365
rfemur 5.33218 2.59479 14.9508
rtibia 3.18055e-015
rfoot -17.2038 -10.2701
rtoes -1.78385
lfemur -5.21564 -7.4667 -13.2545
ltibia 20.1118
lfoot -22.5179 14.9813
ltoes -55.4587
103
root -0.730009 18.7115 5.76822 2.72331 -2.01848 -0.938617
lowerback 0.718536 -0.104832 -1.78094
upperback -2.24599 -0.170525 0.322772
thorax -2.70154 -0.0430354 1.33463
lowerneck -12.4354 -0.767464 -0.947169
upperneck 24.439 -1.76096 3.42221
head 9.83277 -0.522446 1.14244
rclavicle -8.26199e-016 1.11319e-014
rhumerus -45.231 -2.9353 -87.7056
rradius 38.4589
rwrist 21.5864
rhand -7.41702 -29.3957
rfingers 7.12502
rthumb 18.4697 -58.5389
lclavicle -8.26199e-016 1.11319e-014
lhumerus -41.8564 4.21445 89.5836
lradius 36.9986
lwrist -7.24592
lhand -3.74154 -23.3019
lfingers 7.12502
lthumb 22.0021 5.46669
rfemur 5.37058 2.58267 14.9661
rtibia -9.54166e-015
rfoot -17.2055 -10.2725
rtoes -1.66754
lfemur -5.18633 -7.4362 -13.2423
ltibia 20.1193
lfoot -22.5121 14.9404
ltoes -55.4346
104
root -0.730618 18.7114 5.76899 2.70308 -1.99951 -0.946719
lowerback 0.733202 -0.105253 -1.77544
upperback -2.23374 -0.171091 0.325097
thorax -2.69715 -0.0435379 1.33397
lowerneck -12.4365 -0.768538 -0.926733
upperneck 24.4287 -1.75611 3.38085
head 9.82859 -0.523042 1.12499
rclavicle 1.10947e-014 -1.09332e-014
rhumerus -45.2848 -2.93067 -87.7176
rradius 38.5103
rwrist 21.6096
rhand -7.35637 -29.3549
rfingers 7.12502
rthumb 18.528 -58.4925
lclavicle 1.10947e-014 -1.09332e-014
lhumerus -41.8553 4.21286 89.6041
lradius 37.0097
lwrist -7.20578
lhand -3.65114 -23.3247
lfingers 7.12502
lthumb 22.0889 5.4336
rfemur 5.39873 2.56593 14.979
rtibia 1.59028e-015
rfoot -17.1609 -10.2773
rtoes -1.79133
lfemur -5.15599 -7.43391 -13.2341
ltibia 20.1125
lfoot -22.5066 14.9291
ltoes -55.4444
105
root -0.731181 18.711 5.76883 2.6944 -1.98082 -0.924873
lowerback 0.755651 -0.102946 -1.80043
upperback -2.2262 -0.168895 0.325808
thorax -2.70208 -0.0419002 1.3487
lowerneck -12.4459 -0.776133 -0.962854
upperneck 24.4274 -1.76373 3.40205
head 9.83059 -0.527377 1.13763
rclavicle -6.03808e-015 1.78906e-014
rhumerus -45.3415 -2.886 -87.7312
rradius 38.567
rwrist 21.5729
rhand -7.39854 -29.3529
rfingers 7.12502
rthumb 18.4875 -58.4944
lclavicle -6.03808e-015 1.78906e-014
lhumerus -41.8317 4.27647 89.627
lradius 36.9902
lwrist -7.23467
lhand -3.6585 -23.3288
lfingers 7.12502
lthumb 22.0819 5.43034
rfemur 5.41232 2.54699 14.9576
rtibia 2.06736e-014
rfoot -17.133 -10.2847
rtoes -1.97105
lfemur -5.15184 -7.43144 -13.2566
ltibia 20.1043
lfoot -22.4544 14.9451
ltoes -55.4968
106
root -0.732128 18.7107 5.76842 2.68258 -1.97412 -0.880614
lowerback 0.77071 -0.0976074 -1.85828
upperback -2.20789 -0.1633 0.320004
thorax -2.69188 -0.0381676 1.37502
lowerneck -12.4513 -0.794113 -1.03319
upperneck 24.3996 -1.78967 3.47169
head 9.82363 -0.53818 1.17059
rclavicle -5.84241e-015 7.95139e-016
rhumerus -45.4067 -2.81997 -87.7768
rradius 38.6634
rwrist 21.511
rhand -7.51966 -29.3261
rfingers 7.12502
rthumb 18.371 -58.4786
lclavicle -5.84241e-015 7.95139e-016
lhumerus -41.7977 4.27409 89.6731
lradius 36.9792
lwrist -7.21314
lhand -3.74477 -23.2556
lfingers 7.12502
lthumb 21.999 5.5133
rfemur 5.42985 2.53914 14.9118
rtibia -1.74931e-014
rfoot -17.1415 -10.2913
rtoes -2.1511
lfemur -5.14185 -7.41303 -13.3017
ltibia 20.0888
lfoot -22.4255 14.9462
ltoes -55.5773
107
root -0.733093 18.7105 5.76906 2.66917 -1.96435 -0.844369
lowerback 0.767974 -0.0936956 -1.89836
upperback -2.18185 -0.158924 0.308991
thorax -2.66365 -0.0357389 1.38598
lowerneck -12.4339 -0.814561 -1.10328
upperneck 24.328 -1.81801 3.54278
head 9.79675 -0.550542 1.20336
rclavicle -1.67414e-015 9.34288e-015
rhumerus -45.4895 -2.73076 -87.859
rradius 38.8323
rwrist 21.4179
rhand -7.55533 -29.4323
rfingers 7.12502
rthumb 18.3367 -58.588
lclavicle -1.67414e-015 9.34288e-015
lhumerus -41.7837 4.21359 89.7184
lradius 37.0042
lwrist -7.15681
lhand -3.78013 -23.2248
lfingers 7.12502
lthumb 21.9651 5.54808
rfemur 5.45335 2.52879 14.8717
rtibia -6.36111e-015
rfoot -17.1664 -10.2715
rtoes -2.12007
lfemur -5.11438 -7.43167 -13.3408
ltibia 20.068
lfoot -22.4566 14.9172
ltoes -55.585
108
root -0.733394 18.7106 5.77022 2.65768 -1.94866 -0.844247
lowerback 0.767598 -0.0896855 -1.88582
upperback -2.1607 -0.153253 0.302802
thorax -2.64188 -0.0336239 1.37237
lowerneck -12.4097 -0.826731 -1.13735
upperneck 24.2406 -1.83123 3.57044
head 9.76187 -0.557681 1.2165
rclavicle 1.18308e-014 -9.14409e-015
rhumerus -45.5531 -2.60581 -87.9606
rradius 38.9881
rwrist 21.2407
rhand -7.56096 -29.5953
rfingers 7.12502
rthumb 18.3312 -58.7516
lclavicle 1.18308e-014 -9.14409e-015
lhumerus -41.7966 4.15109 89.767
lradius 37.0577
lwrist -7.11702
lhand -3.81031 -23.2511
lfingers 7.12502
lthumb 21.9361 5.52524
rfemur 5.47344 2.51416 14.8726
rtibia 7.95139e-015
rfoot -17.1624 -10.2714
rtoes -2.14354
lfemur -5.09352 -7.4704 -13.342
ltibia 20.0664
lfoot -22.5023 14.8851
ltoes -55.4726
109
root -0.733767 18.7107 5.77034 2.65204 -1.94665 -0.869766
lowerback 0.782347 -0.075409 -1.8435
upperback -2.13804 -0.133509 0.297781
thorax -2.6276 -0.0250191 1.34289
lowerneck -12.3733 -0.842589 -1.15694
upperneck 24.1027 -1.85168 3.60003
head 9.70691 -0.567207 1.22654
rclavicle 1.48157e-015 -9.74045e-015
rhumerus -45.5798 -2.51443 -88.0472
rradius 39.1168
rwrist 21.0418
rhand -7.54206 -29.5363
rfingers 7.12502
rthumb 18.3494 -58.6908
lclavicle 1.48157e-015 -9.74045e-015
lhumerus -41.7895 4.06714 89.8288
lradius 37.0939
lwrist -7.09789
lhand -3.86869 -23.2808
lfingers 7.12502
lthumb 21.88 5.50208
rfemur 5.47719 2.51393 14.9021
rtibia 1.43125e-014
rfoot -17.1251 -10.2992
rtoes -2.5316
lfemur -5.09687 -7.4368 -13.3099
ltibia 20.086
lfoot -22.4979 14.8512
ltoes -55.4087
110
root -0.735277 18.7096 5.76959 2.6365 -1.95933 -0.914253
lowerback 0.80789 -0.0543805 -1.7935
upperback -2.10467 -0.10465 0.2951
thorax -2.60868 -0.0121052 1.31122
lowerneck -12.3393 -0.870502 -1.17287
upperneck 23.9416 -1.8903 3.63429
head 9.64487 -0.584555 1.23521
rclavicle 3.94463e-015 2.5842e-015
rhumerus -45.5739 -2.46281 -88.1328
rradius 39.2435
rwrist 20.8646
rhand -7.42284 -29.4661
rfingers 7.12502
rthumb 18.4641 -58.6098
lclavicle 3.94463e-015 2.5842e-015
lhumerus -41.7742 3.94052 89.8977
lradius 37.1413
lwrist -7.05122
lhand -3.82926 -23.2415
lfingers 7.12502
lthumb 21.9179 5.53694
rfemur 5.48878 2.53009 14.9532
rtibia 1.43125e-014
rfoot -17.1434 -10.2542
rtoes -2.33348
lfemur -5.09225 -7.4022 -13.2577
ltibia 20.1101
lfoot -22.4782 14.8526
ltoes -55.449
